<svg xmlns="http://www.w3.org/2000/svg" viewBox="0 0 1779 755.35"><g data-name="Layer 2"><g data-name="Error 404"><path fill="#6d6d6d" d="m1223.44 682.08 28-6.48a94.06 94.06 0 1 0-11.19-38.47l-23.28 5.4m-76.19 17.69-26 6a17.66 17.66 0 0 0-13.21 21.19l1.06 4.57a17.66 17.66 0 0 0 21.2 13.2l29.43-6.83m243.91-55.79a63.1 63.1 0 1 1-50.28-73.72 63.1 63.1 0 0 1 50.26 73.75Z"/><path fill="none" stroke="#111" stroke-linecap="round" stroke-linejoin="round" stroke-width="6" d="M670 315.47c-33.07-.79-62.41 3-82.75 15.68 4.68-85.23-34-167.17-102.68-190.24-99.73-33.5-139 22.08-152.36 71.6-13.54 50.06 14.24 107.05 42.75 40.8 28.69-66.68 64.77-62.94 115.45-32.63s19 143.23 18.5 219.66c-.27 44.2 9.57 81.77 26.53 107.46-27.94 44.34-86.45 44.42-81.7 76.84 5.62 38.35 29.44 112.24 31.17 127.71l131.14-.8s11.15-36.31-14-48.23-43.23-2.62-43.23-2.62l-2.31-28.7c-.85-10.34 7.57-19.68 20.25-22.46 13-2.83 30.59-6.67 49.87-10.79q4 2 8.31 3.77c-5.08 15-8.89 27.11-9.5 31.56-2.08 15.23 26 32.12 47.4 46.61S713 751 713 751h157.18s.11-57.69-42-56l-46.56 2.78-30.11-21.52c-5.2-3.65-7.9-8.57-7.86-13.54q8.8.4 18.17.58Q831 664.53 888 661.76c15.75 33 27.13 61.8 27.66 70.2.6 9.44.44 14.6 9.95 17.32 9.68 2.77 125-.15 125-.15s2.59-21-.43-27.5c-5.38-11.59-38.57-34.49-48.78-34.49 0 0-2.66-17.84-5.65-35.24q31.15-4.57 56-10.74c2.92 4.74 6.14 8.09 9.5 9.71 33.32 16 82.33-19 88.73 31.55s47.79 46.47 63.9 28.73 11.35-37.86-3.15-95.73c-7.69-30.7-53.4-50.37-53.4-50.37a129.8 129.8 0 0 0 12.32-26" data-name="body"/><path fill="none" stroke="#111" stroke-linecap="round" stroke-linejoin="round" stroke-width="6" d="M1040 747.8s5.2-27.54-33-47.93M1017.86 749.1s2.6-23.2-20.82-39.25M1206 712.13c-.44-4.34 1.84-36.33-11.6-54.55M1189.51 719.5s-14.64-40.23-13.78-61.92M848.7 750s1.59-40.05-31.66-43.81M832.8 750.4s-.15-24.72-27-34.26M605.37 750s5.63-27.79-7.37-36.9a40 40 0 0 0-26-7.37"/><path fill="none" stroke="#111" stroke-linecap="round" stroke-linejoin="round" stroke-width="6" d="M588.89 750s8.24-24.72-14.31-28.19"/><path fill="none" stroke="#111" stroke-linecap="round" stroke-linejoin="round" stroke-width="6" d="m1153.47 495.86-91.34-1.86a11.15 11.15 0 0 1-10.91-11.38l.34-16a11.14 11.14 0 0 1 11.37-10.91l90 1.88" data-name="button"/><path fill="#111" d="M1300 284c5.35 27.69-1.06 60.52-34.85 93.72-36 35.51-84.45 48.47-130 50.46-2.3 58.94-4.58 116.57-4.58 116.57s137.07 17.2 143-38.81c3-28.84-8.17-55.24-19.75-74.07l44.82-50.7c34.06-39.17 22.45-84.48 1.36-97.17Zm-114.45 221.88a29.61 29.61 0 1 1 30.22-29 29.6 29.6 0 0 1-30.22 29Z" data-name="coat back"/><path fill="none" stroke="#111" stroke-linecap="round" stroke-linejoin="round" stroke-width="6" d="m1260.7 218-75.5 5.48c-32.69 1.65-63.79-9.07-92.53-21.5-6.22-2.68-25-18.05-25-18.05l-.29-.59c-16.53-35.23-36.78-72.41-45.07-75.51-20.56-7.69-51.28 82.47-60.09 109.89-88.94 61.77 6.83 175.67 56.83 194 46.45 17 172.44 38.81 246.13-33.9 70.76-69.56 21.53-137.48-4.48-159.82Z"/><path fill="none" stroke="#111" stroke-linecap="round" stroke-linejoin="round" stroke-width="6" d="M1027.58 123.45s-22.6 10.15-29.15 90.06" data-name="ear line"/><ellipse cx="1125" cy="256.48" fill="#111" data-name="eye II" rx="10.66" ry="16.83" transform="translate(-10.15 49.49)"/><ellipse cx="1206.56" cy="261.83" fill="#111" rx="10.66" ry="16.83" transform="rotate(-2.51 1205.857 261.61)"/><path fill="none" stroke="#111" stroke-linecap="round" stroke-linejoin="round" stroke-width="6" d="M1150.68 315.53c9.76 22.62 16.89.31 18.41-12.15 1.62 11.72 10.11 30.52 17.79 14.87"/><path fill="#111" d="m1187.05 292.4-14.23 12.37a6 6 0 0 1-7.61-.23l-13.39-12c-3.21-2.88-1.16-7.48 3.37-7.54l27.63-.35c4.78-.08 7.5 4.9 4.23 7.75Z"/><path fill="none" stroke="#111" stroke-linecap="round" stroke-linejoin="round" stroke-width="6" d="M1178.73 126.44c11.85-13.5 23.3-22.18 30.75-17.42 9.43 6 24.81 56.32 33 99.07"/><path fill="none" stroke="#111" stroke-linecap="round" stroke-linejoin="round" stroke-width="6" d="M1208 118.37s-44.46 54.28-34.75 89.54" data-name="ear line"/><path fill="#111" d="M1109.76 158.71v-17.35l-12 17.35h12zM1135.39 137a5.69 5.69 0 0 0-4.19 1.75q-3.71 4.17-3.7 14t3.7 14a5.89 5.89 0 0 0 8.38 0q3.69-4.16 3.69-14t-3.69-14a5.72 5.72 0 0 0-4.19-1.75ZM1168.9 158.71v-17.35l-12 17.35h12z"/><path fill="#111" d="M1311.63 192.06c-10.82-4.6-79.38-10.85-106.34-13.17-.74-16.67-23.13-86.17-72.06-86-1.73 0-3.4.06-5 .15l-.32-5.1s-56.09 2.81-83.55 50.57l25.57 58.26 4.07 2.1c.38.16 10.92 4.39 17 7 28.74 12.42 61.51 19.22 94.2 17.57l123.53-9c3.52-.17 6.35-2.24 6.77-4.93l1.5-9.51c.47-3.2-1.64-6.36-5.37-7.94Zm-192.59-30a1.89 1.89 0 0 1-1.4.58h-3.94v7.89a1.89 1.89 0 0 1-.58 1.39 2 2 0 0 1-2.78 0 1.89 1.89 0 0 1-.58-1.39v-7.89H1094a2 2 0 0 1-2-2 1.91 1.91 0 0 1 .37-1.16l17.74-25.63a1.79 1.79 0 0 1 1.6-.81 2 2 0 0 1 2 2v23.66h3.94a2 2 0 0 1 2 2 1.93 1.93 0 0 1-.65 1.37Zm23.32 7.55a9.86 9.86 0 0 1-13.95 0q-4.85-5-4.85-16.83t4.85-16.83a9.89 9.89 0 0 1 13.95 0q4.86 5 4.86 16.83t-4.86 16.84Zm35.82-7.55a1.89 1.89 0 0 1-1.39.58h-4v7.89a1.89 1.89 0 0 1-.58 1.39 2 2 0 0 1-2.78 0 1.89 1.89 0 0 1-.58-1.39v-7.89h-15.77a2 2 0 0 1-2-2 1.91 1.91 0 0 1 .37-1.16l17.74-25.63a1.81 1.81 0 0 1 1.6-.81 2 2 0 0 1 2 2v23.66h4a1.89 1.89 0 0 1 1.39.58 2 2 0 0 1 0 2.78Z"/><ellipse cx="1115.42" cy="82.41" fill="#6d6d6d" rx="26.03" ry="12.68"/><path fill="none" stroke="#111" stroke-linecap="round" stroke-linejoin="round" stroke-width="6" d="M1112.63 72c-5-11.72-31.66-57.82-58.6-53.06-31.59 4.33 58.6 53.06 58.6 53.06ZM1112.75 71.53c-4.16-9.71-16.41-52.25 2.44-66.22 21.35-17.09-2.44 66.22-2.44 66.22ZM1113.63 72.31c11.52 0 25.28-9.34 23.36-31.21s26.79-38.62 42.56-17.29"/><path fill="none" stroke="#111" stroke-linecap="round" stroke-linejoin="round" stroke-width="6" d="M1113.78 69.76c7.51 6.23 21.52 7.58 32.09-7.7s38.32-10.68 37.06 11.74"/><g><path fill="none" stroke="#111" stroke-linecap="round" stroke-linejoin="round" stroke-width="6" d="M1266 291s71.48-67.06 155.49-16.21"/><path fill="none" stroke="#111" stroke-linecap="round" stroke-linejoin="round" stroke-width="6" d="M1265.5 304.27s83-52.14 155.71 13.85"/></g><g data-name="coat top"><path fill="#111" d="M886.17 460.66A19.48 19.48 0 1 0 896 471.9a18.79 18.79 0 0 0-9.83-11.24Z"/><path fill="#111" d="M1104.15 327.93 1057 311c-109.64-40.55-118.21-62.67-116.72-72.5a94.1 94.1 0 0 1 22-20.77c3.88-12.08 12-36.33 21.66-59-49.27 9.61-88.94 40.83-91.38 109.27 0 0-77.38-64.71-216.33-31.52-23 5.5-25.5 23.48-21.56 45.67C701.05 543 926 587.93 1110.69 541.35c1.49-13.6 3.32-74.68 4.35-112.93h-.15l22.73-29.53c15.72-37.67-7.96-66.6-33.47-70.96ZM969.29 178.56a3 3 0 0 1 2.15 5.6c-21 8.07-30.7 29.49-29.46 46.49a3 3 0 0 1-2.77 3.21H939a3 3 0 0 1-3-2.78c-1.41-19.2 9.57-43.41 33.29-52.52ZM758 407.76a2.75 2.75 0 0 1-1.07 1.87 2.65 2.65 0 0 1-2 .62 25.08 25.08 0 1 1 20.37-4.88 2.76 2.76 0 0 1-3.9-.47l-25.79-32.84a21 21 0 0 0-5.18 11.24 18.81 18.81 0 0 0 4 14.4 18.65 18.65 0 0 0 11.38 7 2.67 2.67 0 0 1 1.57 1 2.61 2.61 0 0 1 .62 2.06Zm42.85 1.69a18.72 18.72 0 0 0-13.4 6.55l-14.75 16.75a2.72 2.72 0 0 1-1.91.95 2.82 2.82 0 0 1-3-2.61 2.64 2.64 0 0 1 .7-2L798 395.6a2.65 2.65 0 0 1 1.9-.94 2.79 2.79 0 0 1 3 2.6 2.64 2.64 0 0 1-.7 2L798 404q12.84-.81 20.67 6.09a23.76 23.76 0 0 1 6 7.65 3.72 3.72 0 0 1 .42 1.5 2.89 2.89 0 0 1-2.64 2.93 2.71 2.71 0 0 1-2-.7 2.9 2.9 0 0 1-.76-1 17.37 17.37 0 0 0-4.71-6.18 18.81 18.81 0 0 0-14.11-4.84Zm33.78 27.2a18.68 18.68 0 0 0-12.51 8.17l-12.57 18.43a2.78 2.78 0 1 1-4.59-3.13l25.14-36.87a2.68 2.68 0 0 1 1.78-1.17 2.71 2.71 0 0 1 2.08.44 2.77 2.77 0 0 1 .73 3.86l-3.56 5.22q12.63-2.39 21.26 3.5a23.77 23.77 0 0 1 6.93 6.84 3.56 3.56 0 0 1 .6 1.44 2.79 2.79 0 0 1-4.34 2.78 2.8 2.8 0 0 1-.89-.93 17.36 17.36 0 0 0-5.43-5.55 18.82 18.82 0 0 0-14.61-3.03Zm65.4 52.62a25.08 25.08 0 1 1 1.25-19.16 24.14 24.14 0 0 1-1.23 19.16Zm50.71-5.71a2.77 2.77 0 0 1-3.46 1.86 2.93 2.93 0 0 1-1.13-.62 17.16 17.16 0 0 0-6.85-3.66 19.58 19.58 0 0 0-24.3 13.05l-6.44 21.36a2.76 2.76 0 0 1-3.47 1.86 2.75 2.75 0 0 1-1.85-3.46l12.89-42.72a2.67 2.67 0 0 1 1.34-1.65 2.78 2.78 0 0 1 4 3.26l-1.83 6q11.34-6.08 21.33-3.06a23.9 23.9 0 0 1 8.67 4.44 3.63 3.63 0 0 1 1 1.19 2.68 2.68 0 0 1 .12 2.15Zm115.71-51.95h-.26c-31.42-2.74-60.07-12.31-85.16-28.47-20.06-12.92-37.88-30-53-50.88-25.65-35.42-34.38-68.88-34.74-70.28a3 3 0 1 1 5.81-1.49c.09.34 8.88 33.91 33.92 68.43 23 31.69 64.84 70.72 133.66 76.71a3 3 0 0 1-.26 6Z"/><path fill="#111" d="M779.25 388a19.47 19.47 0 0 0-17-21.71 21 21 0 0 0-12.16 2.37l24 30.55a20.58 20.58 0 0 0 5.16-11.21Z"/></g><g data-name="whiskers"><path fill="none" stroke="#111" stroke-linecap="round" stroke-linejoin="round" stroke-width="6" d="M1089.3 291s-71.48-67-155.49-16.17"/><path fill="none" stroke="#111" stroke-linecap="round" stroke-linejoin="round" stroke-width="6" d="M1089.78 304.27s-83-52.14-155.71 13.85"/></g><path fill="none" stroke="#111" stroke-linecap="round" stroke-linejoin="round" stroke-width="6" d="M3 751.09h1773"/></g></g></svg>